<svg width="18" height="12" viewBox="0 0 18 12" fill="#112950" stroke="#112950" xmlns="http://www.w3.org/2000/svg">
    <path d="M0.692338 0C0.508718 0 0.33262 0.070238 0.202781 0.195262C0.0729425 0.320287 0 0.489856 0 0.666667C0 0.843478 0.0729425 1.01305 0.202781 1.13807C0.33262 1.2631 0.508718 1.33333 0.692338 1.33333H17.3084C17.4921 1.33333 17.6682 1.2631 17.798 1.13807C17.9278 1.01305 18.0008 0.843478 18.0008 0.666667C18.0008 0.489856 17.9278 0.320287 17.798 0.195262C17.6682 0.070238 17.4921 0 17.3084 0H0.692338ZM0 6C0 5.82319 0.0729425 5.65362 0.202781 5.5286C0.33262 5.40357 0.508718 5.33333 0.692338 5.33333H17.3084C17.4921 5.33333 17.6682 5.40357 17.798 5.5286C17.9278 5.65362 18.0008 5.82319 18.0008 6C18.0008 6.17681 17.9278 6.34638 17.798 6.4714C17.6682 6.59643 17.4921 6.66667 17.3084 6.66667H0.692338C0.508718 6.66667 0.33262 6.59643 0.202781 6.4714C0.0729425 6.34638 0 6.17681 0 6ZM0 11.3333C0 11.1565 0.0729425 10.987 0.202781 10.8619C0.33262 10.7369 0.508718 10.6667 0.692338 10.6667H17.3084C17.4921 10.6667 17.6682 10.7369 17.798 10.8619C17.9278 10.987 18.0008 11.1565 18.0008 11.3333C18.0008 11.5101 17.9278 11.6797 17.798 11.8047C17.6682 11.9298 17.4921 12 17.3084 12H0.692338C0.508718 12 0.33262 11.9298 0.202781 11.8047C0.0729425 11.6797 0 11.5101 0 11.3333Z"
          fill="inherit"/>
    <path d="M0.692338 0C0.508718 0 0.33262 0.070238 0.202781 0.195262C0.0729425 0.320287 0 0.489856 0 0.666667C0 0.843478 0.0729425 1.01305 0.202781 1.13807C0.33262 1.2631 0.508718 1.33333 0.692338 1.33333H17.3084C17.4921 1.33333 17.6682 1.2631 17.798 1.13807C17.9278 1.01305 18.0008 0.843478 18.0008 0.666667C18.0008 0.489856 17.9278 0.320287 17.798 0.195262C17.6682 0.070238 17.4921 0 17.3084 0H0.692338ZM0 6C0 5.82319 0.0729425 5.65362 0.202781 5.5286C0.33262 5.40357 0.508718 5.33333 0.692338 5.33333H17.3084C17.4921 5.33333 17.6682 5.40357 17.798 5.5286C17.9278 5.65362 18.0008 5.82319 18.0008 6C18.0008 6.17681 17.9278 6.34638 17.798 6.4714C17.6682 6.59643 17.4921 6.66667 17.3084 6.66667H0.692338C0.508718 6.66667 0.33262 6.59643 0.202781 6.4714C0.0729425 6.34638 0 6.17681 0 6ZM0 11.3333C0 11.1565 0.0729425 10.987 0.202781 10.8619C0.33262 10.7369 0.508718 10.6667 0.692338 10.6667H17.3084C17.4921 10.6667 17.6682 10.7369 17.798 10.8619C17.9278 10.987 18.0008 11.1565 18.0008 11.3333C18.0008 11.5101 17.9278 11.6797 17.798 11.8047C17.6682 11.9298 17.4921 12 17.3084 12H0.692338C0.508718 12 0.33262 11.9298 0.202781 11.8047C0.0729425 11.6797 0 11.5101 0 11.3333Z"
          stroke="inherit"/>
</svg>
