<svg width="20" height="20" viewBox="0 0 20 20" fill="none" xmlns="http://www.w3.org/2000/svg">
<path fill-rule="evenodd" clip-rule="evenodd" d="M9.87029 18.0516C6.79378 18.0516 4.1665 17.5728 4.1665 15.6555C4.1665 13.7382 6.77711 11.9683 9.87029 11.9683C12.9468 11.9683 15.5741 13.7211 15.5741 15.6384C15.5741 17.5549 12.9635 18.0516 9.87029 18.0516Z" stroke="#8894A7" stroke-width="1.5" stroke-linecap="round" stroke-linejoin="round"/>
<path fill-rule="evenodd" clip-rule="evenodd" d="M9.86409 9.31136C11.883 9.31136 13.5194 7.675 13.5194 5.65606C13.5194 3.63712 11.883 2 9.86409 2C7.84515 2 6.20803 3.63712 6.20803 5.65606C6.20121 7.66818 7.82621 9.30455 9.83833 9.31136C9.84742 9.31136 9.85576 9.31136 9.86409 9.31136Z" stroke="#8E9AAB" stroke-width="1.5" stroke-linecap="round" stroke-linejoin="round"/>
</svg>
